<?xml version="1.0" encoding="utf-8"?>
<!-- Generator: Adobe Illustrator 19.1.0, SVG Export Plug-In . SVG Version: 6.00 Build 0)  -->
<svg version="1.1" id="Layer_2" xmlns="http://www.w3.org/2000/svg" xmlns:xlink="http://www.w3.org/1999/xlink" x="0px" y="0px"
	 width="1280px" height="524.2px" viewBox="712 -96.2 1280 524.2" style="enable-background:new 712 -96.2 1280 524.2;"
	 xml:space="preserve">
<style type="text/css">
	.st0{fill:#C2C3C4;}
</style>
<g>
	<path class="st0" d="M743.5,31.2c-3.1-1-1.5,4-4.6,4.6c-3.1,0.6-6.7,2.1-4.3,2.8c2.4,0.6,7.9-0.3,8.6-1.2
		C743.8,36.4,744.5,31.5,743.5,31.2z"/>
	<path class="st0" d="M720,37.9c-3.7-0.3-7.3,0-7.9,1.2c-0.6,1.2,3.4,2.1,5.8,2.1c2.4,0,7.3-1.5,6.4-1.8
		C723.4,39.2,720,37.9,720,37.9z"/>
	<path class="st0" d="M740.2,11.4c-1.2,0.4,2.1,2.4,3.4,2.4c1.2,0,3.4-3.4,0.9-3.4S743.2,10.4,740.2,11.4z"/>
	<path class="st0" d="M750.9-13.7c0,0,0,0,1.8,1.5s4.9,2.1,7.6,2.4c2.8,0.3,2.8-1.5,0.6-3.4c-2.1-1.8-2.8-1.5-4.6-1.8
		c-1.8-0.3-2.1-2.1-7-2.1c-4.9,0-4.3-2.4-4.9-3.7c-0.6-1.2,4.3-0.6,5.5-0.3c1.2,0.3,6.1-3.7,6.1-3.7s7.9-3,8.9-2.4
		c0.9,0.6,5.5-0.6,7.6-1.2c2.1-0.6,3.4-4,3.4-4s2.8,0.9,4.3,2.4s4.9,0,5.8,0c0.9,0,5.5,3.1,5.5,3.1s6.1,0,8.6-0.3s8.9-0.3,11.3,0.3
		c2.4,0.6,13.4,1.2,14.7,1.2c1.2,0,7.3,2.1,11.3,1.2s5.8,0.6,6.7,0.9s1.8,0.3,3.4,2.1c1.5,1.8,3.1,0.3,5.2-0.9
		c2.1-1.2,1.8-2.5,1.8-2.5s0,0,1.8-0.3s3.1,0.6,8.2,0.9c5.2,0.3,4-0.9,7.6-2.1c3.7-1.2,7.3,1.5,8.6,1.2c1.2-0.3,2.7-2.7,3.7-1.5
		c0.9,1.2,2.4,3.7,2.4,3.7s4-3.1,5.2-3.1s4.9,1.2,7,0.9s10.4-0.3,12.2,1.2s6.4,1.2,8.9,2.7c2.4,1.5,4.9-1.2,3.7-1.8
		s-4.3-3.1-4.3-3.1s-4.6-5.5-5.2-6.4c-0.6-0.9-1.5-0.9-2.7,1.5s-5.8,2.4-11,2.7c-5.2,0.3-1.8-2.4-7.6-2.7c-5.8-0.3-3.7-2.4-1.8-2.4
		s3.1-3.7,3.7-5.8c0.6-2.1,2.7-1.8,7-1.5s5.5-0.6,9.8,0s4-1.8,8.2-1.5c4.3,0.3,2.1,0.9,4.6,2.5c2.4,1.5,4,1.2,7.3,2.7
		c3.4,1.5,2.1,1.5,3.7,1.8c1.5,0.3,6.7-0.6,9.8-0.9s5.5-0.6,7,1.2s1.2,4,3.4,5.5c2.1,1.5-1.2-5.5-1.2-7.9s4.3-0.3,7-0.3
		s5.8-0.9,6.4,0.3c0.6,1.2-4,3.1-1.2,5.8c2.7,2.7,4.6,3.7,7,3.7s7.9,0.6,5.5,4s-8.9,3.1-11,3.1s-5.8,1.2-4.9,3.1s5.8,0.9,9.2,0.9
		s13.8,0.9,16.5,0c2.8-0.9,2.1-4.6-0.9-5.5c-3.1-0.9-0.6-2.7,2.5-2.1s6.1-0.9,5.5,0s0.3,3.1,0.3,5.5s0.9,4,3.1,3.4
		c2.1-0.6,2.4-0.9,4.6-1.2c2.1-0.3,0.9-5.5-0.3-8.3c-1.2-2.7-2.1-4.3-1.8-5.8s3.7-1.8,5.5-0.3s4.3,4.6,4.3,4.6s3.7,2.1,4.9,4.6
		s1.5,1.8,4,0.3c2.4-1.5,3.1-1.2,5.2,0.3c2.1,1.5,0.6,4.6,0.6,5.5c0,0.9,3.1,0,3.7-1.8c0.6-1.8,3.1-1.8,4.6-2.4s1.5-4.3,1.5-4.3
		s-4-0.9-7.9-0.6c-4,0.3-5.2-0.3-8.2-2.5c-3.1-2.1-1.2-3.7-2.8-5.8c-1.5-2.1,4.9-3.4,8.9-5.2c4-1.8,7.9-0.6,7,4s-1.5,4,3.1,3.1
		s-0.3-4.9,1.8-5.2s7.6-1.2,9.5-0.9c1.8,0.3,11.9-0.9,14.4-0.9c2.4,0,6.4,2.1,9.2,3.7c2.8,1.5,10.1,3.7,11.9,4.6
		c1.8,0.9,14.7,2.7,15.9,3.1c1.2,0.3,1.2,4,2.4,7c1.2,3.1,4.6,0.9,5.8,0.9c1.2,0,5.5,2.1,6.7,3.7c1.2,1.5,10.4,2.7,10.4,2.7
		s-2.1,2.7-3.1,3.7c-0.9,0.9-3.1,1.5-4.9,2.8c-1.8,1.2-4-0.3-6.4-1.8s-6.7-2.4-7.6-1.8c-0.9,0.6-0.3,1.8,0.3,2.8
		c0.6,0.9,4.6,2.1,7,4c2.4,1.8,1.8,3.7,2.1,6.1c0.3,2.5-2.4-0.9-5.5-1.5s-3.4,2.4-3.4,2.4s-4-0.3-5.8-0.3c-1.8,0,0,0-3.4-2.5
		c-3.4-2.4-2.7,1.5-4.6,0.3c-1.8-1.2-3.7-3.1-4.6-2.4c-0.9,0.6-4-2.8-5.8-2.4c-1.8,0.3-9.2-0.9-11-0.3c-1.8,0.6-3.4,0.6-4.9,1.2
		s-2.1-4.3-1.2-5.8c0.9-1.5,3.1-1.8,7-0.9c4,0.9,4.3,0,5.2-1.5s1.8-3,6.1-4.3c4.3-1.2-0.3-2.1-1.5-2.8c-1.2-0.6-2.8-1.8-3.7,0
		s-3.1,4-3.1,4s-2.4,0-5.8-0.3c-3.4-0.3-0.9-1.5,0.6-2.1c1.5-0.6,3.4-4.3,1.8-5.2c-1.5-0.9-2.1-1.5-4.9-0.9
		c-2.7,0.6-0.9-2.1-2.7-3.1c-1.8-0.9-1.2,0.6-1.2,1.8s-2.7,0.9-2.7,0.9s-4.3-0.6-5.8,0s-4.3,1.8-3.4,2.8c0.9,0.9,4,0.9,4.9,3.7
		c0.9,2.7-4,3.4-4.9,3.7c-0.9,0.3-4.6,1.5-4.6,1.5s-3.7-0.9-6.7-0.9c-3.1,0-4,0.3-3.4,1.5s2.1,0.6,3.1,0.6c0.9,0,0.9,1.5,3.7,0.9
		c2.8-0.6,2.1-1.5,4.6,0.9c2.4,2.4,4.9,2.1,8.9,4.3c4,2.1-0.6,4.6-2.8,4.6c-2.1,0-2.1-1.8-3.4-3.7c-1.2-1.8-6.1,0.3-6.1,0.3
		s-4,2.1-6.1,2.1s-3.7-0.3-0.9-2.4c2.8-2.1-3.4-2.5-3.4-5.5c0-3.1-1.2,3.1-1.2,4.6s-2.4,0.3-7.6,0.9s-4.3,2.4-11,6.7
		s-8.2,5.2-7.6,9.2c0.6,4,2.1,2.7,4.9,3.4c2.7,0.6,1.8,5.2,4,4.9c2.1-0.3,3.7-1.8,7.9,0.3c4.3,2.1,6.4,2.7,11.6,3.7
		c5.2,0.9,8.6,2.5,11.3,1.8c2.8-0.6,4.6,0.3,4.6,2.4s1.8,2.4,1.5,5.2c-0.3,2.7,3.4-2.5,3.4-2.5s1.5,4.6,0.3,5.2
		c-1.2,0.6,0.3,3.4,1.8,3.1s3.7,0.9,5.5-0.6c1.8-1.5-0.9-6.1-0.9-7.9s-1.8-2.7-2.8-4.6c-0.9-1.8,2.4-2.1,3.7-0.3
		c1.2,1.8,3.4,0.3,5.5-1.2s2.1-4.3,2.1-4.3s-3.7-4.9-6.4-6.1c-2.8-1.2-1.5-1.5,1.2-2.1c2.8-0.6,0-1.5,0.6-4.9s0.6-5.5,2.1-5.5
		s7-0.9,11.6-0.6s6.7,3.7,9.8,4s7.9,0.9,8.9,2.4c0.9,1.5-3.4,1.8-1.2,4.3c2.1,2.4,2.4,2.1,4.6,3.1c2.1,0.9,4.6,0.3,7.3-3.4
		c2.8-3.7,4-4,4.9-3.4s6.7,7.3,8.3,8.9c1.5,1.5,4.6,4.9,4.9,6.4s4.6,1.5,5.8,1.5c1.2,0,5.8,3.4,6.4,5.2s1.8,2.4,5.8,3.4
		c4,0.9,0,4.3-0.9,6.1s-1.5,2.5-2.7,4.6c-1.2,2.1,0,0,1.5,0.9s2.1,2.1,4.6,1.5c2.4-0.6,3.7,0,4.6,1.8c0.9,1.8,2.1,3.4,3.1,4.9
		c0.9,1.5,0,4-1.2,2.5c-1.2-1.5-5.2-0.6-5.2-0.6s-1.8,1.8-2.4,0.9c-0.6-0.9-1.8-2.1-4-1.5c-2.1,0.6-4.3,0-6.7,0.3s-3.4-1.2-1.8-2.5
		c1.5-1.2,1.8-5.8,4.9-7.6s2.1-4.6,0-4.6s-3.1,2.7-4.3,3.4c-1.2,0.6-3.7,0.6-5.8,2.1s-7.3,0.9-5.2,1.5s-3.1,3.1-4.9,3.1
		s-1.2-4-1.2-5.5s-2.4,0.9-2.4,0.9s-4.9-2.7-6.7-0.9c-1.8,1.8-4.6,2.8-6.7,4.6c-2.1,1.8-7,4.9-7,4.9s1.8-0.9,5.5-1.8
		c3.7-0.9,3.4-0.6,6.4-2.1c3.1-1.5,6.1-2.1,8.3,0.6c2.1,2.7-0.9,4.3-0.9,4.3s1.2,2.1,2.4,2.8c1.2,0.6,1.5-0.6,3.7-1.8
		c2.1-1.2,1.2,2.5,1.8,3.7s2.7,1.2,4-0.3c1.2-1.5,2.1-2.7,3.1-1.8c0.9,0.9,1.8,3.1,2.8,5.2c0.9,2.1-6.4,2.8-7.6,3.1s-7,1.5-7.9,1.8
		s-4,3-6.4,3s-2.1-3.7-2.4-5.8c-0.3-2.1-3.4,0.3-3.7,1.2c-0.3,0.9-3.1,0.6-5.2,0.9c-2.1,0.3-5.8,2.5-5.8,4.9s2.7,3.7,1.8,4.9
		s-6.4,2.1-8.6,1.5c-2.1-0.6-5.2,0.9-4.3,2.1c0.9,1.2,0.3,3.1-1.8,2.8s-2.4,1.8-1.5,3.4s-2.8,4.6-3.7,3.4c-0.9-1.2-2.7-1.8-2.7,0
		s0.6,3.4,2.4,5.8c1.8,2.4-4,4-6.1,5.8s-9.5,7.9-12.5,9.2c-3.1,1.2-3.1,5.2-1.5,6.7c1.5,1.5,3.4,7.9,4.3,10.1
		c0.9,2.1-0.3,8.2-3.1,7.9c-2.7-0.3-1.2-4-4-4.9c-2.7-0.9-4.3-6.4-4.9-10.1c-0.6-3.7-1.2-1.5-3.1-0.3c-1.8,1.2-3.7-2.4-4.6-3.4
		c-0.9-0.9-6.1,0.6-9.8,0.3c-3.7-0.3-4.9,1.5-4.9,2.4s-0.6,3.7-4,1.8c-3.4-1.8-4-1.8-7.3-1.8c-3.4,0-6.4-0.3-7,0.9s-4,4-6.1,4.6
		s-6.1,3.7-4.3,4.3s1.8,4.9,0.6,7.3c-1.2,2.5-0.9,6.7-0.3,11c0.6,4.3,4.3,7,7.6,9.8c3.4,2.8,4.6,3.7,7.9,1.2
		c3.4-2.4,4.6-0.9,5.5-0.6s3.4-1.5,2.4-4.3c-0.9-2.7,1.2-5.2,4-4.9c2.7,0.3,6.7-0.9,8.9-0.6c2.1,0.3,3.4,6.1,0,8.6s-1.5,6.1-2.1,8.9
		c-0.6,2.7-3.4,3.4,0,3.4c3.4,0,2.5,0.6,4.6,0.9s4.3-1.8,6.4-2.1c2.1-0.3,7.6,4.6,6.7,7c-0.9,2.4-1.8,6.7-1.5,10.7
		c0.3,4,1.5,4.3,2.1,5.5s3.1,4,5.8,2.8c2.7-1.2,5.5-2.1,6.4-3.4c0.9-1.2,6.7,2.1,6.1,3.1c-0.6,0.9,2.1,1.8,4,0.9
		c1.8-0.9,2.8-2.4,4.6-4.9c1.8-2.4,4.9-4.6,6.4-4.9s5.2-4,7.6-3.4c2.5,0.6-0.9,3.7-1.2,5.5c-0.3,1.8,0,7,1.2,7.3
		c1.2,0.3,0.6-3.7,2.1-6.4c1.5-2.7,4.6-4.3,6.1-4.3s2.7,6.4,4.9,4.6c2.1-1.8,6.4-1.5,7.3,0.3c0.9,1.8,1.8,2.7,1.8,2.7
		s1.5-1.2,1.5-2.7s4.9-3.1,7.9-1.2c3.1,1.8,1.8,2.4,3.4,2.8c1.5,0.3,3.1-4,4-4.3s0,4.9-2.1,7.6c-2.1,2.8,1.8,1.8,1.8,1.8
		s0,0,0.9,0.9s4-0.9,5.2,0.9c1.2,1.8,3.4,2.4,5.2,5.8c1.8,3.4,4.6,2.4,8.2,1.8c3.7-0.6,8.3,1.8,11.9,5.8c3.7,4,3.1,7,5.5,7
		c2.5,0,3.1,3.4,3.1,4.6s-5.5,4-8.6,4.6s-3.1,3.7,1.8,2.8c4.9-0.9,2.7-2.8,5.8-3.7c3.1-0.9,6.1,1.2,3.4,4.9c-2.8,3.7-8.3,4-3.4,4.6
		c4.9,0.6,2.1-0.6,4.9-4.3c2.7-3.7,2.4-2.4,4.3-2.4c1.8,0,5.8,0.9,7.3,2.1s5.5,3.1,7.9,4.6s5.5,0.9,7.3,0.3c1.8-0.6,7,1.8,8.9,4.3
		c1.8,2.5,6.4,2.8,8.6,3.7c2.1,0.9,5.5,4.6,5.8,7.6c0.3,3.1-3.4,9.5-3.7,11c-0.3,1.5-5.2,7-9.8,10.7s-1.8,7.9-1.5,9.8
		c0.3,1.8-3.1,8.5-2.1,10.1c0.9,1.5-1.2,4.9-3.1,7c-1.8,2.1-3.1,6.1-4.3,7.9c-1.2,1.8-5.2,1.2-8.9,2.1c-3.7,0.9-5.5,1.8-5.5,1.8
		s-6.4,3.1-10.1,5.5s1.2,6.7-0.6,10.1c-1.8,3.4-3.7,3.1-5.5,7c-1.8,4-2.7,0.6-4.3,1.5c-1.5,0.9-2.4,3.4-2.7,5.8
		c-0.3,2.4-3.4,4.9-7.3,8.6c-4,3.7-6.4,3.1-10.7,1.8c-4.3-1.2-3.7-11.6-4.3-10.1s-0.3,7,0.3,8c0.6,0.9,2.4,4.3,4,5.2
		c1.5,0.9,1.2,2.4,0,4c-1.2,1.5-4.6,7-5.8,7.3c-1.2,0.3-10.7,1.5-12.5,0.6c-1.8-0.9-2.7,2.1-2.5,4c0.3,1.8,1.8,4-1.5,3.4
		c-3.4-0.6-7.9-2.7-7.9-1.2s0.9,4.9,2.7,4.9c1.8,0,3.7-1.2,2.8,0.9s-3.4,4-4.6,4.9c-1.2,0.9-2.7,4-5.8,6.1s-3.1,3.4-2.4,4.3
		c0.6,0.9,5.2,0.3,6.1,0.9c0.9,0.6-0.9,4.9-2.1,5.8c-1.2,0.9-6.4,5.2-8.6,6.4c-2.1,1.2-2.1,4.9-1.5,6.7s5.5,6.4,8.2,7.3
		c2.8,0.9,8.6,0.6,7.9,1.5c-0.6,0.9-7.3,1.8-8.2,2.1s-5.8,1.5-8.3,1.5c-2.4,0-7-2.4-7.9-2.4s0.6-1.2,3.7-3.7
		c3.1-2.4-1.2-5.2-1.8-1.8s-1.8,4.3-3.4,4.3c-1.5,0-3.4-2.1-4.3-3.1c-0.9-0.9-4.9-1.8-4.3-5.5c0.6-3.7-1.8-3.4-3.7-4.9
		c-1.8-1.5,2.4-2.7,1.8-4.3c-0.6-1.5-3.4-0.6-3.7-2.7c-0.3-2.1,2.4-5.2,2.8-6.1c0.3-0.9-1.8-2.8-2.1-4.3c-0.3-1.5,1.2-3.1,3.4-5.5
		c2.1-2.5,3.7-5.5,3.7-6.4s-1.5-4.3-1.5-6.7s1.5-3.4,2.1-6.7c0.6-3.4-2.1-2.1-2.1-4.9c0-2.7,3.1-1.8,2.4-4.6
		c-0.6-2.7,1.5-4.6,2.4-6.4s1.8-4.9,3.1-7c1.2-2.1-1.2-7-1.2-7.9s4-2.1,2.1-4c-1.8-1.8,0.6-3.4,2.4-4.9c1.8-1.5-0.3-5.8,0.6-11.3
		c0.9-5.5,1.8-15,1.8-15.9s0.3-4.6-1.2-7c-1.5-2.5-3.4-4.3-5.5-5.2s-4.9-3.7-6.4-4s-8.9-3.1-8.9-7.3c0-4.3-5.2-7.6-5.8-10.7
		c-0.6-3-5.2-9.8-5.5-12.8c-0.3-3.1-6.7-4-7.6-7.3c-0.9-3.4,3.1-5.8,3.7-7.9c0.6-2.1-2.1-6.7-2.4-8.2s4.6-5.8,6.4-6.7
		c1.8-0.9,3.4-4.9,4.6-4.9s0.9-3.4,2.1-6.7c1.2-3.4-0.6-7.9-1.5-8.6c-0.9-0.6-1.8-4.6-3.4-5.8c-1.5-1.2-4.6-0.6-4.6-0.6
		s0.6,2.7-2.1,4.3c-2.7,1.5-3.4-0.3-4.3-1.2c-0.9-0.9-4.3-1.2-5.8-2.7s-4-3.7-5.8-4.6c-1.8-0.9-4.6-1.8-4.3-5.5
		c0.3-3.7-4-5.8-5.2-6.4c-1.2-0.6-3.7-2.1-5.2-1.2s-4.3-1.8-6.4-1.5c-2.1,0.3-6.4-3.7-7.9-5.2s-2.7-3.7-5.5-3.7s-3.1,0.9-4.9,3.1
		c-1.8,2.1-4.6-1.5-5.5-2.4s-3.4-1.2-6.7-1.2c-3.4,0-5.8-4.6-7-5.2s-9.8-4.6-11.9-5.8c-2.1-1.2-4.3-5.8-3.4-7
		c0.9-1.2-1.5-5.2-1.5-5.2s-4.3-4.9-5.8-4.9s-6.4-8.6-9.2-11c-2.7-2.4-9.2-8-10.4-10.7s-1.5-7-4.6-4.9s-0.6,4.3,2.4,6.7
		c3.1,2.5,2.5,4.9,6.7,8.3c4.3,3.4,2.5,6.7,4.3,8.2s8.3,5.2,5.5,7.6c-2.7,2.4-5.5-3.1-6.7-3.4s-4-0.9-3.7-2.7
		c0.3-1.8-2.4-3.4-4.6-6.1c-2.1-2.7-3.1-1.2-5.8-1.2c-2.8,0-0.3-3.4,1.2-4.9s-1.5-3.7-3.4-4.3c-1.8-0.6-4.3-7.6-6.7-11.9
		c-2.5-4.3-4.3-6.4-7-6.1s-4-3-5.8-4.3c-1.8-1.2-4.6-7-7.6-10.1c-3.1-3.1-5.8-8.9-5.5-12.2c0.3-3.4,1.2-11.9,1.2-14.1
		c0-2.1-1.5-7.3-1.5-8.3s-1.5-2.5-2.7-2.7c-1.2-0.3-4.6-4.6-7.3-4.6s-4.6-3.1-3.7-5.2c0.9-2.1-2.4-5.8-4-5.8s-4-4-4.9-6.1
		s-3.4-2.1-2.7-0.9c0.6,1.2-0.3,3.4,1.2,4s2.8,5.5,1.5,6.1c-1.2,0.6-4-1.8-7-3.4c-3.1-1.5-1.8-7.6-1.8-9.2c0-1.5-4.3-3.1-6.1-3.1
		s-3.7,0.3-4-3.7s-5.8-6.1-7.6-6.1c-1.8,0-11.6-4-14.7-4c-3.1,0-8.2-2.8-10.1-1.5c-1.8,1.2-5.2-2.1-7-2.1s-1.8,1.2-5.2,3.4
		c-3.4,2.1-4.6,0.9-6.4,2.4s-6.4,3.1-4.9-0.6c1.5-3.7,1.5-4.3-0.9-3.4c-2.5,0.9-3.1,3.4-3.1,4.9s-4.3,4-4.3,4s4,0.3,5.5,0
		s0.3,3.4-1.2,4.3c-1.5,0.9-3.7,3.4-6.1,2.7c-2.4-0.6-2.7-2.7-4.3-3.1c-1.5-0.3-4.9,2.1-10.4,4.9s-4.6,0.6-6.7,1.5
		c-2.1,0.9-9.8,3.7-12.5,4s-2.1-3.4-0.6-3.4s7.3-2.8,8.9-3.7c1.6-0.9,8.3-3.4,10.1-4.3c1.8-0.9,4.9-2.4,3.7-4.3
		c-1.2-1.8-5.2,0.9-5.2,0.9s-3.1-2.8-4-3.4c-0.9-0.6-2.8,2.4-2.8,2.4s-4-0.6-3.1-4c0.9-3.4-2.1-3.4-2.7-1.8c-0.6,1.5-5.8,4-6.1,2.4
		c-0.3-1.5-4.9-4.6-6.1-7s1.2-2.7,4-4.9c2.7-2.1,6.7-2.7,10.1-2.4c3.4,0.3,5.5-3.7,4.3-4s-3.4-0.6-5.2,0.9c-1.8,1.5-6.4,1.2-6.4,1.2
		s-6.7,0-9.5-1.8c-2.7-1.8-4.3-4.6-4.3-4.6s5.5-2.1,9.8-2.4L750.9-13.7z M1030.8,77.4c3.1,0.3,3.1-4,2.7-5.2
		c-0.3-1.2-0.3-6.4,0.9-7.3c1.2-0.9,2.7-3.7,6.1-4c3.4-0.3,5.5,2.1,5.2,4.9c-0.3,2.7,0.6,5.5,1.8,5.5c1.2,0,4.9-2.1,3.7-4
		c-1.2-1.8,0.9-7.9,0.9-5.8s2.5,3.7,4,3.4s-1.5-5.8-3.7-6.1c-2.1-0.3-6.4-0.3-7.3,0c-0.9,0.3-6.1-1.5-8.6-1.2
		c-2.4,0.3-6.1,1.2-7.3,3.7c-1.2,2.4,0,7-0.3,8.9C1028.7,71.9,1028.1,77.1,1030.8,77.4z M1047.9,77.4c0.7,1.4,4,0.3,5.8-1.5
		c1.8-1.8,5.8-2.4,7-4c1.2-1.5,2.1-1.2,5.2-2.4s5.5-1.5,4.3-3.1c-1.2-1.5-7.6,0-8.6-0.6c-0.9-0.6-7.3,6.7-7.3,6.7s-5.5,2.1-5.8,3.1
		C1048.2,76.4,1047,75.5,1047.9,77.4z M1016.2,53.8c0,1.6,3.1,1.8,4.9,0.9c1.8-0.9,4.6-1.5,5.8-1.8c1.2-0.3,0.6,1.5,3.4,1.5
		c2.7,0,6.1,0.9,7,0.6s3.7-4,1.5-4.3c-2.1-0.3-5.5-2.4-7.3-4.3c-1.8-1.8-6.1,2.4-10.1,4C1017.4,52,1016.2,51.4,1016.2,53.8z
		 M890.8,43.7c-2.5-0.8,0.9,3.7,2.4,4.6s4.6,0.9,4.9,2.4c0.3,1.5,1.2,5.2,2.7,4.9s1.5-3.7,0.3-4.9s-5.8-4.9-6.7-4.9
		C893.6,45.9,891.8,44.1,890.8,43.7z"/>
	<path class="st0" d="M1041.8,1.8c-0.8,0.9,3.7,2.2,4.5,1C1047.1,1.6,1043.9-0.5,1041.8,1.8z"/>
	<path class="st0" d="M1053.6,3.6c-3.2,0.9-0.2,3.3,1.8,2.4C1057.5,5.2,1056.5,2.8,1053.6,3.6z"/>
	<path class="st0" d="M901.6-46.1c-0.4,1.2,1.8,1.2,4.5,1.2c2.6,0,6.9,0,8.2-0.6c1.2-0.6,7.3-2,7.1-0.2s2.4,4.7,3.9,4.3
		c1.4-0.4,4.3-3.1,5.7-2c1.4,1,1.6,3.5,3.1,4.1c1.4,0.6,5.3,0.6,7.1,0s6.9-0.6,9.2-0.2c2.2,0.4,8.8,1.6,9.4,0.4
		c0.6-1.2,2.4-1.4,2.6-2.7c0.2-1.2,1.2-5.1,1.2-5.1s-1.2-2.2-3.3-1.2c-2,1-2.6,1.6-4.5,1.2c-1.8-0.4-1.8-3.7-5.1-3.1
		s-3.9,2.4-4.9,3.3c-1,0.8-3.3,1.4-4.1,1s-5.5-3.1-5.5-3.1s-9.8-0.4-10.2-1.6s-2-3.3-6.5-2.8c-4.5,0.4-12.2,3.1-13.5,3.1
		c-1.2,0,1.4,2.4-0.2,2.4C904.3-47.7,902.3-47.9,901.6-46.1z"/>
	<path class="st0" d="M936.3-54.5c-2.4,0.8-1.8,3.1-0.2,3.1s5.7-1.4,6.9-0.4s4.3,0.2,4.1-0.8s1.2-5.1-1.2-5.3
		C943.4-58.1,940-55.7,936.3-54.5z"/>
	<path class="st0" d="M963.8-57.1c-0.3,1.5,1.6,2.6,4.1,2.6s7.7-1.2,8.1-0.2s-0.2,1.8,2.6,2.2c2.9,0.4,4.1,0.8,5.7,0.8
		c1.6,0,1-2.7-0.4-4.5s-1-1.6-4.7-2.6s-7.3-1-9.8-0.8C967-59.3,964.4-60,963.8-57.1z"/>
	<path class="st0" d="M967.9-47.7c-1.5,1.3,0,5.5-0.6,5.9s0.2,2.2,1.8,1.8s2.4-4.3,3.7-4.3c1.2,0,7.5-1.4,8.6,0.8
		c1,2.2,1,1.2,3.9,1.4c2.8,0.2,5.1-2.8,5.3-3.9c0.2-1-1.4-3.1-5.3-2.6C981.3-48.1,969.5-49.2,967.9-47.7z"/>
	<path class="st0" d="M975.4-36.9c-1.4,0.9-0.6,3.9,1.6,4.1c2.2,0.2,6.1-1.4,6.5-0.2s1.8,6.7,5.5,4.9s3.5-3.5,4.5-3.7
		s-0.2-4.7-1.8-5.7s-6.9-0.4-8.4,0.2C981.9-36.7,977.6-38.4,975.4-36.9z"/>
	<path class="st0" d="M998.4-35.1c0.2,0.6,1.8,1.6,4.5,1.2c2.6-0.4,6.5-0.8,8.3-1s2.2-3.3,0.2-3.5s-3.7-2-5.5-1.4
		C1004.1-39.2,997.8-36.5,998.4-35.1z"/>
	<path class="st0" d="M997.8-43.7c-0.9,2.1,8.2,3.3,7.1,0.8C1003.9-45.3,998.8-46.1,997.8-43.7z"/>
	<path class="st0" d="M999.4-54.1c-2.6-0.6-6.9-1.4-6.9-2s-1.2,2.9,1,3.9s5.9,2.8,8.6,3.9c2.6,1,7.7,1.2,9.4,3.3
		c1.6,2,7.1,3.7,7.1,3.7l6.5,0.6c0,0,4.5-1,9.2-0.6c4.7,0.4,11.6,1,15.5,0.8s4.5-1.4,4.9-2.2s-7.1-2.5-9-2.2
		c-1.8,0.2-12.2,0.2-15.3,0s-6.9-0.2-9.4,0c-2.4,0.2-4.3-1.6-6.1-2.6s-5.9-4.3-8.4-4.7C1004.1-52.8,1004.5-52.8,999.4-54.1z"/>
	<path class="st0" d="M1255.1-11.7c-0.8,1.4-2.4,1.4-0.8,4.3c1.6,2.8,2.9,4.5,4.3,4.3c1.4-0.2,6.3-0.4,6.9,1.2s2.2,3.1,5.7,2
		c3.5-1,6.3-1.6,7.1-2.8c0.8-1.2,6.3-1.4,6.3-1.4s4.5-3.5,2.8-4.9c-1.6-1.4-5.5-2.5-7.3-2.7c-1.8-0.2-3.7,1.4-7.7,1.4
		c-4.1,0-6.7,1.6-8.4,0C1262.4-11.9,1255.7-12.7,1255.1-11.7z"/>
	<path class="st0" d="M1081.5-52c2.2,1.6,3.5,0.6,6.3,1.2c2.8,0.6,5,5.1,6.5,5.7s3.5,0,4.5-1.2c0.9-1.2,2.2-5.5,2.2-5.5
		s0,4.1,2.2,4.9c2.2,0.8,7.8-0.6,9.3-0.4s10.2,1.4,12.7,2.6c2.4,1.2,8.4,2,10.1,4.7c1.7,2.6,1.9,11.8,2.8,12.8
		c0.9,1,4.1-3.3,4.8-4.3c0.7-1,4.7-0.4,6,1c1.3,1.4,4.3,4.9,4.1,6.3c-0.2,1.4-0.7,3.7-1.9,2.8c-1.1-0.8-3-0.6-2.2-2.2
		c0.7-1.6,1.1-5.1-0.4-5.1s-2.8,0-2.8,0s-2.8-0.8-4.7,2.2c-1.9,3.1-0.4,6.1,0.9,6.1s4.3,0,4.3,0.8s-3.2,3.3-3,4.7
		c0.2,1.4,2.6,6.3,3.4,7.3c0.7,1,4.7,2,5.8,2.2s-2.6,0.4-1.7,1.8s2.4,4.9,4.5,5.7c2,0.8,7.8,4.5,8.6,6.1c0.7,1.6,5.2-1.2,6.2-1.4
		c0.9-0.2,0.7,4.3,3.4,4.5c2.6,0.2,3.5-0.4,5.8-2.2c2.2-1.8,1.7-4.3,1.9-6.1c0.2-1.8,0-3.3,2.4-2.7s3.7-0.4,3.5-2.4
		c-0.2-2-2.2-4.5,1.7-5.1s6-3.3,8.4-3.3s9.1,1,9.9,0c0.7-1,3.9-5.7,6-5.9c2-0.2,7.4-0.6,12.3-1.4c4.8-0.8,10.1-3.9,11.7-3.7
		c1.7,0.2,5.8,0.2,4.5-1c-1.3-1.2-3.2-4.1-6-4.1c-2.8,0-0.2-4.5,0.6-4.5c0.7,0,4.5,0.6,4.3,2.6c-0.2,2,1.1,4.7,4.8,3.9
		c3.7-0.8,3.2-3.9,2.4-4.7c-0.7-0.8-1.3-2.9-2-4.3c-0.7-1.4-0.6-3.3,3.4-3.7c3.9-0.4,9.3,1.6,9.1-1.6c-0.2-3.3,0-6.7,1.1-8.6
		c1.1-1.8,3.5-3.1,2.2-3.7c-1.3-0.6-3,0.8-4.3-2.2c-1.3-3.1,1.1-5.3,2.6-6.5s9.3-9.2,13.6-10.4c4.3-1.2,7.3-5.9,4.3-6.9
		s-8.9-2.9-12.8,0.4s-6.1,6.3-10.6,5.3s-5.1-6.4-7.7-9.2c-3.7-4-1.4-12-5.3-11.4c-3.9,0.6-3.9,0.6-3.9,0.6s-4.6-0.8-7.4-0.2
		c-3.7,0.8-6.1,3-8.3,2.6c-4.2-0.9-7.9,1.2-9,1.5c-9.1,2-16.5-0.7-17.8-0.9c-1.1-0.2,6.4,0.9,12.2,0c4.4-0.7,11.9-2.2,15.5-2.8
		c3.7-0.6,0.7-2.1-0.6-2.2c-4.7-0.5-11.9-2.5-17.5-2.7c-4.4-0.2-7.3,1.1-11.7,1.2c-5.7,0.1-12.4-0.2-16.9,2.5
		c-3.9,2.4-8.9,2.7-9.3,3.1c-2.2,2.4-4.3,8.6-6.3,6.9c-2-1.6-2.4-5.7-5-4.1c-2.6,1.6-0.2,5.7-2.4,8.6c-2.2,2.9-8.6,2.4-10.4,1.4
		s-3.7-1.8-11.2-1.4s-15.6,2.9-14,5.3c1.7,2.4-3.4,3.9-4.7,2.7c-1.3-1.2-7.3,1.4-6.9,3.9c0.4,2.4-0.9,5.3-4.1,4.7s-5.4,1.4-5.6,3.5
		c-0.2,2-7.3,3.5-7.8,3.5C1087.3-54.3,1078.1-54.5,1081.5-52z"/>
	<path class="st0" d="M1039.7,145.8c-0.3,3.1,2.8,2.1,6.4,2.1c3.7,0,10.1-0.6,11.3,0.9c1.2,1.5,6.7,4,8.3,5.2
		c1.5,1.2,6.4,1.5,6.7,0.3c0.3-1.2-3.4-4.6-5.5-4.3c-2.1,0.3-6.7-2.1-9.2-4.3c-2.5-2.1-7-2.1-8.9-2.1
		C1047,143.7,1039.7,145.8,1039.7,145.8z"/>
	<path class="st0" d="M1062,137.3c-2.8,0.3-2.1,3.7,1.2,3.1C1066.6,139.7,1064.7,137,1062,137.3z"/>
	<path class="st0" d="M1063.5,162.6c-2.8,0.5-2.1,6,1.2,5C1068.1,166.6,1066.3,162.1,1063.5,162.6z"/>
	<path class="st0" d="M1103.9,159.2c-2.8,0.5-2.1,6,1.2,5C1108.5,163.2,1106.6,158.7,1103.9,159.2z"/>
	<path class="st0" d="M1076.1,160.5c0,0,3.4,0.6,5.5,0.6s3.4,1.2,5.2,2.1c1.8,0.9,5.2-1.2,6.4-1.2c1.2,0,2.8,3.7,3.1-0.3
		c0.3-4-3.7-5.8-6.1-6.4c-2.4-0.6-5.2,0-7,0.3C1081.2,155.9,1076.1,160.5,1076.1,160.5z"/>
	<path class="st0" d="M1332.2,100.6c1.2-0.6,6.1-2.1,8.9-3.4c2.7-1.2,11.6-4.3,12.8-4.3c1.2,0,16.5,0.3,18.6-0.6s7.7-2.4,10.1,4.3
		s0,4.3-2.4,5.5c-2.5,1.2,0.9,4,2.1,4s5.5,4,7.6,4s7.3,2.1,7.3,2.1s5.2,4,7.9,4c2.7,0,4.9,2.1,7.9-0.9c3-3.1,7-6.7,10.1-6.1
		c3.1,0.6,6.4,3.1,10.4,3.1s11.3-0.6,12.5,0.9s-8.3,6.7-7.6,7.9c0.6,1.2,1.8,0.9,4.9-2.7c3-3.7,7.6-3.7,11.3-4.6s5.5,4.9,6.1,6.7
		s3.4,5.2,5.5,9.2s4.3,9.5,6.7,13.8c2.4,4.3,4,10.7,6.4,13.4c2.4,2.8,4.6,7.3,6.1,11s5.2,7.3,6.4,7.6c1.2,0.3,6.4,7.3,6.7,9.2
		c0.3,1.8-1.8,5.8,3,6.1c4.9,0.3,9.2-2.1,10.7-2.7s13.4-5.2,15-3.4c1.5,1.8-2.1,9.8-2.4,11.9s-9.2,12.5-9.5,15.3s-5.5,7.6-8.9,8.3
		c-3.4,0.6-10.4,9.2-12.8,11.9c-2.4,2.7-6.4,8.9-8.3,9.5c-1.8,0.6-2.4,7-1.5,8.3c0.9,1.2,0.3,8.6,3.1,11c2.7,2.4,3.7,4.3,2.4,6.4
		c-1.2,2.1,0.6,7,0,11s-4,9.2-5.2,10.4s-8.9,3.4-11.3,6.4c-2.5,3.1-4.6,5.8-4,7.3s3.1,9.2,2.7,11c-0.3,1.8-6.1,4.3-8.6,5.5
		c-2.4,1.2-1.2,3.7-0.6,6.1s-4.3,6.4-6.4,8.6c-2.1,2.1-7.9,9.5-11.9,12.2c-4,2.8-8.6,4.9-12.5,4.6c-4-0.3-11.6,0-13.1,1.5
		s-3.7,1.2-6.7-0.3c-3.1-1.5-3.4-3.7-3.7-7c-0.3-3.4-1.2-5.5-1.2-5.5s-0.9-5.2-3.7-7.6c-2.7-2.5-3.7-5.2-5.2-7s-0.6-5.8-0.9-9.2
		s-2.1-8.6-3.7-10.7c-1.5-2.1-4.6-7.9-5.8-10.1c-1.2-2.1-2.7-6.4-2.4-12.5c0.3-6.1,4.6-9.5,7-11.3c2.5-1.8,0.3-4.3-1.8-7.9
		c-2.1-3.7,0.3-9.8-1.5-11.9s-7.9-13.5-11.3-15.3c-3.4-1.8-3.7-2.4-1.8-6.7c1.8-4.3,0-8.6,3.1-11.3c3.1-2.7,1.5-4.6-1.8-6.4
		c-3.4-1.8-2.1-2.7-4.9-0.6s-6.4,3.4-8.6,1.2c-2.1-2.1-1.5-5.5-5.5-7.9s-9.2,0.9-10.7,1.5s-5.8,3.4-10.1,4
		c-4.3,0.6-7.3-0.3-11.6-0.3c-4.3,0-7.9,0.3-8.6,2.5c-0.6,2.1-1.5,3.4-4.3,1.2c-2.8-2.1-8.3-7-8.3-7s-7.6-6.1-9.2-9.8
		c-1.5-3.7-4.3-6.1-10.1-8.9c-5.8-2.7-2.5-5.8-3.1-8.9s-3.7-4.3-2.1-4.6c1.5-0.3,1.2-2.4,4.6-6.7c3.4-4.3,1.2-8.9,0.6-11.3
		s-3.7-6.1-0.6-10.1c3.1-4,6.1-12.5,8.6-15c2.5-2.4,8.6-5.8,11.9-7.3c3.4-1.5,1.2-5.5,3.1-10.1c1.8-4.6,4.6-6.7,5.5-6.7
		s4.3-3.2,7.9-5.2C1324.5,99.4,1330.9,101.2,1332.2,100.6z M1465.7,226.2c-0.8-1.3-6.1-0.9-7,0.6s-1.8,8.6,0.9,9.2
		C1462.4,236.6,1467.2,228.6,1465.7,226.2z"/>
	<path class="st0" d="M1521.3,271.4c-3.8-1.1-4.3,4-7.3,7.3c-3.1,3.4-6.4,6.1-7.6,5.8c-1.2-0.3-7.9,2.1-5.8,6.7s1.8,9.2-0.3,11.3
		s1.8,8.2,1.2,11.6c-0.6,3.4,0.9,5.5,5.2,5.5s5.8-1.5,7.6-5.5s2.1-7.9,4-11.3c1.8-3.4,3.4-10.4,4.3-12.2c0.9-1.8,2.8-7.6,2.5-11
		C1524.7,276.3,1523.5,272,1521.3,271.4z"/>
	<path class="st0" d="M1632.3,192.9c-2,0.9-3.7,11.3,0,12.5s5.8-4.9,4.6-6.4C1635.6,197.5,1635,191.7,1632.3,192.9z"/>
	<path class="st0" d="M1375,78.9c-2.9,0-4.3,4.6-2.5,6.1c1.8,1.5,3.7,1.2,5.2-0.9S1376.5,78.9,1375,78.9z"/>
	<path class="st0" d="M1351.7,83.8c-0.7,1.2,2.4,1.5,3,0.3C1355.4,82.9,1353.9,80.4,1351.7,83.8z"/>
	<path class="st0" d="M1388.1,89c-1.1,0.7,1.8,2.7,3.4,3.4c1.5,0.6,2.7,2.5,4,2.8c1.2,0.3,5.2,0,4-3.1s-4-3.1-4.9-3.1
		C1393.6,89,1389.6,88.1,1388.1,89z"/>
	<path class="st0" d="M1315,27.2c-2.8,0.5-3.1,3.4-4.9,3.4c-1.8,0-4,0.6-3.4,2.7s1.8,3.7,0,4.6c-1.8,0.9,0.3,4.6,2.7,4.9
		s5.2-1.5,7.3-2.4s5.2-2.7,5.2-5.5s-0.6-5.2-1.8-6.4C1319,27.2,1316.9,26.9,1315,27.2z"/>
	<path class="st0" d="M1318.4,18.1c-2.5,0.8-1.5,4-0.3,5.5c1.2,1.5,3.4,4.9,6.4,6.1c3.1,1.2,9.5,2.4,7,3.7c-2.5,1.2-6.7,4.6-7.3,6.4
		s5.2,3.7,5.2,3.7s-1.8,2.1-0.3,2.7s2.5-2.1,4.9-2.1s7.3,1.5,9.8,1.5s6.4-3.4,6.1-5.5s-3.4-5.5-6.1-6.7c-2.7-1.2-5.8-6.7-7.6-7.9
		c-1.8-1.2,1.8-4.3-0.3-6.4c-2.1-2.1-3.7-1.8-6.1-3.4c-2.4-1.5-4.6,0.3-6.1,2.1C1322.1,19.6,1320.2,17.5,1318.4,18.1z"/>
	<path class="st0" d="M1338.6,60.6c-0.3-2.7-6.4-5.2-10.4-5.8s-3.4-2.4,0.9-2.7s4-1.8,7.6-2.4c3.7-0.6,7.3-1.5,10.1-1.8
		c2.7-0.3,2.7-2.8,2.7-4.6s7.6-2.5,7.6-2.5s4.3-4,6.7-5.8s6.7-1.5,10.1-0.6c3.4,0.9-0.3-2.1-1.5-3.7c-1.2-1.5-0.3-4.9,0.6-6.7
		c0.9-1.8,6.4-2.8,7.9-2.1c1.5,0.6,0,3.4,0.3,5.8c0.3,2.4,2.7,4,2.7,4l2.5-0.3c0,0,0,0,4,0s2.8,2.4,5.8,1.5c3.1-0.9,6.7-2.1,7.9-2.7
		c1.2-0.6,4.6-0.6,9.2,0.9s2.1-2.8,3.1-5.2c0.9-2.4,2.7-6.7,5.8-6.4c3.1,0.3,5.5,2.1,7.9,0.6s-4.6-3.7-4.6-4.6c0-0.9,5.8-0.9,11-1.2
		s8.3,0,10.7-0.6s-1.8-4.9-2.8-4.9c-0.9,0-7,0.6-10.1,0.3c-3-0.3-6.4,1.8-9.2,2.4c-2.7,0.6-3.4-3.7-4.9-5.5s-2.1-5.2,1.8-7
		c4-1.8,11-5.8,12.2-7.6s-4.9-1.5-10.7-1.2c-5.8,0.3,0.9,1.8-4.6,7.3s-8.2,1.8-12.5,5.5s-1.2,4,2.8,5.2s0.6,4.9-0.3,5.8
		s-5.5,4.3-4.9,6.7s-3.1,4-3.1,4s-11.3,2.4-13.5,2.7c-2.1,0.3-2.7-1.5-2.1-3.4c0.6-1.8-2.5-6.1-2.7-8.9c-0.3-2.8-4.9,1.2-5.2,3.1
		c-0.3,1.8-6.1,2.1-9.5,0.9c-3.4-1.2-5.2-5.8-4.6-6.7c0.6-0.9-1.8-5.5-1.8-6.7s6.7-6.1,12.5-7.3c5.8-1.2,13.1-8.3,17.1-11.3
		c4-3.1,5.8-6.7,7-7.6s22.3-6.4,29.9-7.6s24.5,1.5,27.2,2.1s4.3,1.5,11,4c6.7,2.4,12.5,2.4,16.8,3.1c4.3,0.6,7,1.8,9.8,3.1
		c2.7,1.2,0,2.1-6.7,4.3c-6.7,2.1-11.3,1.5-15,0.3s-5.8-1.2-3.1,0.6s1.8,2.8,2.1,5.5c0.3,2.8,4.6,0.3,5.5-0.3s0.9-1.8,4.3,0.3
		c3.4,2.1,4.6,0.9,6.1,0.6s0.3-3.7,1.2-4.9s4.6-1.2,5.5-1.8s3-1.5,4.9-1.8c1.8-0.3,1.5,2.7,3.4,3.7c1.8,0.9,0.9-4,0.3-5.2
		s-1.2-4.6-0.3-5.5s7.3-1.5,8.9-0.3c1.5,1.2-2.4,4.9-1.5,7s3-1.2,4.6-3.1c1.5-1.8,4.9,0,10.4-0.9s4.3-4,10.1-2.1
		c5.8,1.8,4.3,1.8,6.1,0s5.2,0.3,8.5-0.9c3.4-1.2,3.4,0,5.8,1.2s5.5-2.5,6.7-3.7s6.1-1.2,8.6-0.9c2.4,0.3,5.5,1.8,7.9,1.8
		s6.4,1.8,6.4,1.8s5.2,1.8,6.4,0.6s-0.3-2.8-4.9-4.9s-2.7-5.8,0-6.1c2.8-0.3,2.5-1.8,4.6-3.1c2.1-1.2,4.9-5.8,7.3-4.9
		s4.6,2.7,7.6,4.3c3,1.5,0.3,3.7-0.3,5.2s0.6,7.3,1.5,8.3c0.9,0.9-0.9,4.3-3.4,5.8s-5.8,4.9-4.9,5.5s8.2-2.7,8.2-2.7s4.6-5.5,6.7-7
		s4.3-1.5,4.9,0.3s4,2.4,7,1.2c3.1-1.2,0-2.1-0.3-4.9s-5.2-1.2-8-0.6c-2.7,0.6-4.9,3.4-5.8,3.4s-0.9-1.8-0.3-4.6
		c0.6-2.7-1.2-4.3-1.2-5.8s0.9-1.5,3.1-4.6c2.1-3.1,2.1,2.1,2.4,4.9c0.3,2.7,2.4,1.5,4.3,1.2c1.8-0.3,0.9-4,2.5-5.8
		c1.5-1.8,4.9-2.1,7.9,0.6c3.1,2.8,2.7,1.8,6.4,3.1c3.7,1.2,4,1.5,4.3,4.3c0.3,2.7,2.7,3.1,4.3,2.1c1.5-0.9,0.3-4.6-0.6-5.8
		c-0.9-1.2-8.3-3.4-10.7-5.5s1.2-2.1,4-2.1c2.7,0,7.9,0.3,7.9,0.3s5.8-1.2,8.9-3.4c3.1-2.1,5.2-2.1,8.3-3.4c3-1.2,7.9-1.2,11-0.6
		c3,0.6,5.2-1.2,8.2-2.5c3.1-1.2,6.4-2.1,7.3-1.5s8.5,2.4,9.8,2.1c1.2-0.3,4-1.2,8.9-3.1c4.9-1.8,2.7-1.5,4.6-2.4
		c1.8-0.9,4.9-1.2,11.3,1.5c6.4,2.8,0,0,1.8,1.8s2.7-0.3,7-0.9s7,0,9.8,0.3c2.7,0.3,8.9,0.3,11.6,2.1s-1.8,5.8-3.4,7
		c-1.5,1.2,2.4,2.1,3.7,1.8c1.2-0.3,11.3,0,15.9,0.6s6.4,2.8,8.6,2.8c2.1,0,5.5-0.9,6.7-2.1s8.9-1.8,11.3-2.1s9.2,0,10.1,0.6
		s1.8,3.7,1.8,6.1c0,2.5,2.7,4.6,4.9,4.9c2.1,0.3,6.1-3.7,7.6-4.3s3.4,2.8,4.3,1.8c0.9-0.9,8.6,0.3,11.6-1.2s4.9,0,6.4-0.6
		s4-4,4-5.2s1.2-2.1,0-4c-1.2-1.8-5.5-0.6-10.1-1.8s-0.3-3.1,1.5-4.3s4.9,0,7.9,0.6c3.1,0.6,1.8-0.9,3.4-0.9c1.5,0,7,1.5,10.1,1.5
		s5.5,3.4,5.5,3.4s-8.6,2.5-10.4,2.5s-0.6,2.4,0.9,2.4s3.7,0.9,5.8,2.5s11.6,0,12.8,0c1.2,0,4.9,1.5,8.6,3.7
		c3.7,2.1,6.1,3.1,6.1,3.1s5.2,0,10.4-0.6c5.2-0.6,11.9-0.6,13.1,0.3s4.6,1.8,7,4c2.4,2.1,4.3,1.2,7.6,0.9c3.4-0.3,6.7-0.9,9.8-0.9
		c3.1,0,13.1-0.3,15,2.4c1.8,2.8,4,2.1,4,2.1s2.8-4.9,4-5.8s5.2,0.6,7.6,1.8c2.5,1.2,14.4,0,17.4,0.6c3.1,0.6,7.3,3.7,4.9,6.1
		c-2.5,2.4,1.8,6.7,0.9,9.2c-0.9,2.4-3.4,2.7-5.8,3.4c-2.4,0.6,2.5,3.7,4.6,5.8s-1.2,2.7-3.4,1.8c-2.1-0.9-7.6,0.3-14.7,2.1
		c-7,1.8-9.8,5.5-17.1,5.8c-7.3,0.3-4.3-0.3-13.4-0.3c-9.2,0-8.9,2.4-10.7,5.5c-1.8,3.1,0.9,2.4,0,4.9s-2.4,5.2-2.4,7.3
		s-5.5,2.4-7.3,4.3c-1.8,1.8-4.9,6.4-10.1,9.8s-8.9,8.6-8.9,8.6s0.9-5.2,3.4-8.9c2.4-3.7-2.7-8.9-3.1-12.8c-0.3-4,1.5-5.2,4.6-8.9
		s10.4-4.9,13.5-6.7S1935,2.8,1935,2.8s-2.5,1.5-5.5,2.7c-3.1,1.2-6.7,3.7-9.2,3.7c-2.4,0-1.5-2.5-1.8-4.9s-6.1-0.6-8.3,1.8
		c-2.1,2.4-6.1,4-10.4,7c-4.3,3.1-3.1,2.7-5.8,3.1c-2.8,0.3-7.3-1.5-9.5-3.1c-2.1-1.5-4.3,1.2-11,1.5s-14.4-0.6-17.4-0.3
		c-3.1,0.3-10.7,9.2-15.3,10.7c-4.6,1.5-10.4,4.3-8.9,6.4s4.3-1.8,5.5-1.8s-0.9,4.3,1.8,4.3c2.7,0,4.3-1.5,7-1.8s4.9,2.1,5.5,5.5
		s-1.2,6.1-2.4,10.4c-1.2,4.3-3.1,8.6-7.9,12.2c-4.9,3.7-12.8,10.4-14.4,12.2c-1.5,1.8-7,0.3-7.9-0.9s-3.7,2.7-5.8,3.7
		c-2.1,0.9-4.3,2.8-4.3,5.2s-6.1,2.4-6.1,4c0,1.5,3.7,5.8,5.2,7.9s-0.3,8.9-3.1,10.4c-2.7,1.5-4,3.4-7.6,1.2
		c-3.7-2.1-0.6-3.4,0.9-6.7c1.5-3.4-1.5-5.2-2.1-6.1s-3.1,1.8-4.3,2.1c-1.2,0.3-1.2-2.8-0.3-4.6c0.9-1.8-0.6-5.8-1.5-6.1
		s-6.7,4.6-9.2,4.3s-0.3-5.8,0.6-7.3s-1.8-0.3-3.7,1.2c-1.8,1.5-5.8,4.9-7.3,4.6s-4.6,2.4-2.1,4.3c2.4,1.8,3.4,3.4,4.9,3.7
		s5.5-0.6,7-0.9s4.6,2.1,1.5,4.9s-9.5,3.1-8.2,4.9c1.2,1.8,4.3,4.6,6.7,8.9c2.4,4.3,1.5,8.9,2.1,12.2c0.6,3.4-8.9,10.4-11.6,12.5
		s-5.5,7.3-10.1,9.8s-14.4,4.6-15.9,3.7s-5.8,1.5-5.5,4.9s2.4,3.1,2.4,4s-3.1,4.6-4.3,6.1c-1.2,1.5-5.5,0-4.9-4.6s3.7-6.4,3.4-8.6
		c-0.3-2.1-3.1-3.4-4.9-1.5c-1.8,1.8-7.6,7-7.6,7s2.1,5.5,4.9,7.6c2.7,2.1,4.6,5.2,8.3,9.8c3.7,4.6,0.9,8.6,0,11.9
		c-0.9,3.4-4,3.4-6.4,4c-2.5,0.6-3.1,1.5-4,3.4c-0.9,1.8-5.2,4-5.8,2.4c-0.6-1.5-4.6-5.2-4.6-5.2s-2.8-5.5-6.7-8.2
		c-4-2.7-5.5-4-5.5-1.2c0,2.7-2.4,7.9-2.4,9.8c0,1.8-5.5-5.5-5.5-8.6s-0.9-8.3-0.6-13.1c0.3-4.9-6.4-0.3-6.4-0.3s-3.1,5.2-4.6,5.2
		s-2.1-4.3-1.8-7.9c0.3-3.7-1.5-7-2.4-8.3c-0.9-1.2-6.1-6.1-7-9.5s-2.7-2.1-4.6-0.3c-1.8,1.8-1.2,1.8-8.6,1.8c-7.3,0-7,4.6-10.7,7.3
		c-3.7,2.8-6.7,7.9-11,9.8s-6.1,3.7-6.1,5.8c0,2.1,0,7.6-0.9,10.7s-1.5,7.3-3.7,10.4c-2.1,3.1-4,7.9-5.8,7.9s-2.5-4.3-2.5-7
		s-5.2-9.2-6.4-11.3c-1.2-2.1-5.8-11.6-5.8-11.6s-3.7-10.1-3.4-12.8c0.3-2.7,0.3-10.4,0.3-10.4s-4.9,4.9-7,4.6s-4.3-3.7-4-7.6
		c0.3-4-3.7-3.7-5.8-4.3c-2.1-0.6-4.9-6.1-6.4-6.1s-2.5,0-3.7,1.8s-7.6,1.5-9.2,1.5s-10.7-0.3-13.4-1.2c-2.7-0.9-5.8-6.4-7.3-7
		s-6.1,3.4-7.9,2.7c-1.8-0.6-5.5-3.7-9.5-5.5s-5.2-6.1-6.7-8.9c-1.5-2.7-6.7,1.5-6.1,4.6s7.3,7,7.3,9.2c0,2.1,1.2,2.7,4.6,5.5
		c3.4,2.7,0.6,4.3,2.7,4.9s5.2-2.4,8.3-4c3.1-1.5,2.7-3.7,4.3-3.7c1.5,0,1.2,4,3.7,4.3c2.4,0.3,8.9,4,10.4,6.4s-1.5,4-2.7,6.1
		s-4.9,8.3-7.9,10.7c-3.1,2.4-6.4,5.8-11,6.7c-4.6,0.9-5.2,3.4-8.9,3.7c-3.7,0.3-13.8,5.2-15.3,6.1s-9.8,3.4-12.2,2.4
		c-2.5-0.9-3.4-7-4.3-11.6s-2.1-7-3-8.9c-0.9-1.8-6.4-6.7-7.7-7.6c-1.2-0.9-4.3-8.3-4.6-11.3c-0.3-3.1-3.7-1.8-4.3-5.2
		c-0.6-3.4-4-7.9-4.6-10.1c-0.6-2.1-6.7,0.3-9.2,0.6c-2.4,0.3-7-1.8-6.4-6.7s3.1-4.9,6.1-4.9c3.1,0,1.8-1.5,4.9-4.6
		c3-3.1,4-9.2,4.3-13.1c0.3-4-2.1-2.1-4.6-1.5c-2.4,0.6-6.1,1.5-7.3,1.2c-1.2-0.3-6.1-1.8-7-0.9c-0.9,0.9-6.1,0.3-7.3-1.2
		s-7.3-3.4-8-4.6c-0.6-1.2,0-8.6-1.2-10.4c-1.2-1.8-4,0.3-5.5,1.5s-5.8,2.1-4.6,3.1c1.2,0.9,5.2,2.7,4.9,5.2
		c-0.3,2.5-3.1,3.1-4.6,4.3s-4.6,3.1-5.5,1.5c-0.9-1.5-4-8.3-4.9-9.5s-3.7-4.3-4.6-7s-4.3-3.7-6.4-5.8s-8.3-5.5-10.7-7.9
		c-2.5-2.4-6.7-4.3-7-1.2s4.3,3.7,6.1,6.7c1.8,3.1,5.8,4.9,7.9,5.8s8,4.9,8,4.9s-2.5,0.9-4.6,0.6s-0.3,3.7-0.6,5.8
		c-0.3,2.1-2.5,2.1-3.1-0.3c-0.6-2.5-2.5-5.2-3.7-6.1c-1.2-0.9-9.2-3.4-10.4-4c-1.2-0.6-6.4-4-7-6.7s-5.2-3.1-6.4-2.4
		c-1.2,0.6-5.8,4-7.9,4c-2.1,0-5.5-1.5-7.9-1.8s-2.7,4-3.7,6.4c-0.9,2.5-4.9,0.6-7,2.8c-2.1,2.1-5.8,4.3-4.9,6.1s2.5,1.8-0.3,3.4
		c-2.8,1.5-4.3,4.6-7,4.9c-2.7,0.3-6.4,1.5-7.9,0.6s-2.7,3.1-3.7,4c-0.9,0.9-2.5-2.7-4-4.3c-1.5-1.5-5.5-0.3-6.7-0.6
		c-1.2-0.3-2.5-3.1-4-4.3s-1.2-4,0-4.9c1.2-0.9,2.4-2.4,1.5-5.2s-1.5-8.9,1.5-10.1c3.1-1.2,10.4,0,14.1,0c3.7,0,10,1.3,11-0.6
		C1338.3,66.4,1338.9,63.3,1338.6,60.6z M1453.8,6.8c-1,2.9,7,5.2,8.6,3.1C1463.9,7.7,1455.3,2.5,1453.8,6.8z M1443.4,80.7
		c0.6,1.2,3.7-1.8,6.1-1.8s7.9,0.9,9.5-1.2c1.5-2.1,6.4-2.4,10.4-1.8s7.3,3.4,10.1,3.7c2.7,0.3,10.1-0.3,12.5-0.9s1.8-4.9-2.1-7
		c-4-2.1-7.3-5.5-11-6.7s-4.9-2.4-2.7-3.1c2.1-0.6,4.9-3.1,1.8-3.1s-5.8,0.9-6.1,2.4s-2.1,3.4-3.4,4c-1.2,0.6-4.3,3.1-5.2,1.2
		c-0.9-1.8-4.3-7.3-5.8-7.6s-4,0-5.8,3.1s-4,6.1-5.8,7.3s-4.3,4.9-2.4,5.5C1445.2,75.2,1443.4,80.7,1443.4,80.7z M1513.4,59.3
		c-3.7,2.5-4.9,5.8-3.4,7.9s5.8,8.9,7.9,9.5s9.8,1.8,6.7,4.6c-3.1,2.7-3.7,3.7-6.4,3.4c-2.7-0.3-1.5,7.3,0.6,7.9
		c2.1,0.6,8.6,2.8,10.7,3.1s9.2-0.6,8.9-2.4s-1.5-9.2-4-11s3.4-3.7,1.8-5.2c-1.5-1.5-3.7-0.9-4.9-2.7c-1.2-1.8-1.8-3.7-3.7-4.9
		c-1.8-1.2-3.4,1.2-3.1-2.1c0.3-3.4,4.6-5.5,6.4-3.7s7.3,0.9,8.6,0c1.2-0.9-2.5-3.7-3.4-5.5s-7-3.4-7.9-2.7c-0.9,0.6-3.4,2.5-5.8,4
		C1520.1,60.9,1515.2,58.1,1513.4,59.3z"/>
	<path class="st0" d="M1548.5-27.2c-2.3,2.3-7,1.5-10.4-0.3s-7.3-2.1-9.2-2.7c-1.8-0.6,0.3-4.3,2.4-5.2c2.1-0.9,7.9-3.7,12.2-5.5
		s5.5-5.5,8.6-5.5s17.7-3.1,19.6-2.4c1.8,0.6,10.7,1.2,12.5-1.2s8.2-0.9,6.7,1.2s-7,7-10.7,6.1s-14.1-0.6-18.6,0
		c-4.6,0.6-8.9,3.4-12.8,5.5c-4,2.1-3.1,4.6-1.5,4.9C1548.8-32,1550.4-29,1548.5-27.2z"/>
	<path class="st0" d="M1857.8,33.7c-1.8,0.5-7-0.6-5.2,3.7s2.1,7.3,1.8,10.7c-0.3,3.4,0,10.4,0.6,11.3s3,3.1,4.6,2.4
		c1.5-0.6-0.6-6.7-0.6-7.9s2.1-3.1,3.4-3.4c1.2-0.3,0-5.5-1.5-7.6s-3.7-3.4-2.4-3.7c1.2-0.3,2.7-2.7,1.8-3.4
		C1859.4,35.2,1860,33.1,1857.8,33.7z"/>
	<path class="st0" d="M1854.8,64.8c-2.3,0.6-3.1,3.7-3.1,4.6s-8.6,2.7-5.8,5.2c2.7,2.4,5.5,0.6,9.8,0.3s8.3-1.5,8.3-1.5
		s6.4,0.3,5.5-2.7c-0.9-3.1-7.6-3.4-8.9-3.1C1859.4,67.9,1857.2,64.2,1854.8,64.8z"/>
	<path class="st0" d="M1847.7,76.8c-2.3,1.4-0.9,6.7-2.7,10.4c-1.8,3.7-3.4,7-4.6,7s-7.6,2.4-9.5,4.3c-1.8,1.8-10.7-1.5-11.9,0
		c-1.2,1.5-3.7,3.4-5.2,4.6s-5.8,0.3-4.9,4s3.1,7,4.9,7s4.3-1.2,4.3-4.6s4.3,0,6.4-0.3s3.4-2.4,4.3-4.9c0.9-2.4-1.2,1.2,2.5,2.1
		s4.9-1.5,4.9-2.5s6.7-2.4,7.9-3.4c1.2-0.9,6.1-2.4,6.4-3.7c0.3-1.2,0-8.3,1.5-8.9s3.7-0.6,1.2-4.9
		C1850.8,78.9,1850.8,74.9,1847.7,76.8z"/>
	<path class="st0" d="M1780.5,137c-4.5,0.7-7.3,10.4-3.7,10.1C1780.5,146.7,1784.5,136.3,1780.5,137z"/>
	<path class="st0" d="M1969.1,353.3c-1.2,0.6,0,4,1.2,5.2s1.8,5.5,1.5,6.7s-5.5,2.8-3.1,4.3c2.5,1.5,7,0,6.4,1.8s-3.1,4.3-0.3,4.9
		c2.7,0.6,3.7-2.1,4.9-4.3c1.2-2.1,2.1-4,4.3-5.2c2.1-1.2,0-4-1.2-4s-1.8,1.5-4.6,0c-2.7-1.5-2.1-0.9-4-4
		C1972.4,355.8,1972.1,351.8,1969.1,353.3z"/>
	<path class="st0" d="M1966.6,372.9c-0.5,1.5-3,1.8-4.9,3.4c-1.8,1.5,0,2.1-5.2,5.2s-11.6,6.4-12.8,9.2c-1.2,2.8,1.2,4.3,6.1,4.6
		s3.7,1.2,7-2.4c3.4-3.7,6.4-5.8,10.4-8.9s4-7.6,4-7.6S1966.9,372,1966.6,372.9z"/>
	<path class="st0" d="M1864.6,375.3c-3.4,3.4,3.4,3.4,2.4,6.7c-0.9,3.4,4.6,2.1,6.1,1.5s5.2-7.7,4.6-9.5s-6.7,3.1-8.2,2.8
		C1867.9,376.6,1864.6,375.3,1864.6,375.3z"/>
	<path class="st0" d="M1842.2,351.5c0-3.1-1.8,3.4-3.1,0.6c-1.2-2.7,1.2-7.3-1.8-5.5c-3.1,1.8-4.6,3.4-4.9,4.9s-5.8,2.1-5.5,0.6
		s2.5-5.2,0.3-6.7c-2.1-1.5-5.8-2.1-8.6-3.1c-2.7-0.9,0.3-4-7-2.4c-7.3,1.5-10.1,3.4-10.1,3.4s-6.7-2.1-8.9,0.3
		c-2.1,2.4-5.2,7-5.2,7s-8.6,0.3-10.4,0.6s-4.9,2.7-7.6,3.7c-2.8,0.9-7.3,1.8-9.2,0.3c-1.8-1.5-4.9-4.3-4-6.1s7.6-4.3,5.2-7.3
		s-4-3.7-4.3-5.5s0.9-2.7-2.7-6.4c-3.7-3.7-2.7-7.9-1.2-8.6c1.5-0.6-0.9-4.3-2.1-5.8s-1.2-7,1.2-8.6c2.5-1.5,9.8-7.3,11.9-7.3
		s5.5,0.9,7.6-0.6s8.6-0.9,8.6-2.1s0.6-6.1,2.1-7.6s7.9-3.1,8.9-4.3c0.9-1.2,2.4-6.4,4.3-7.3c1.8-0.9,3.4-3.1,6.1,0s5.5,4.3,6.7,1.2
		c1.2-3.1,0.3-2.1,3.1-4.9c2.7-2.8-0.3-7.3,2.4-4.6c2.7,2.8,4.6,4.9,4.6,4.9s-0.3-6.1,1.5-6.1s3.7,3.1,4.6,3.1s9.2-1.8,10.7,0.3
		c1.5,2.1-4.3,7.9-2.1,10.1c2.1,2.1,6.4,3.4,9.5,5.2s6.7,6.1,8.3,2.4c1.5-3.7,4.6-9.2,2.4-11.9c-2.1-2.7,0.6-11.6,1.5-12.2
		s2.4,7,5.5,10.4s6.1,5.8,7.6,9.5s1.8,10.1,4.6,12.2c2.7,2.1,8.3,2.1,7.9,4.9c-0.3,2.8,6.1,7.9,9.5,13.1s3.7,16.5,3.7,21.4
		s-3.7,11.3-6.4,15c-2.7,3.7-3.7,8.6-4.9,10.4c-1.2,1.8-0.6,1.5-5.2,2.7s-7.9,4.9-9.2,3.7c-1.2-1.2-5.5-3.4-6.7-1.8
		c-1.2,1.5-2.7,4.9-4.9,1.2c-2.1-3.7-7-3.1-7.9-3.7s-0.9-2.4-0.9-5.5c0-3-4-3.4-4.3-4.3C1843.2,353.3,1842.2,352.4,1842.2,351.5z"/>
	<path class="st0" d="M1983.1,291.6c4,1.5,11-5.5,8.3-6.4C1988.6,284.3,1983.1,291.6,1983.1,291.6z"/>
	<path class="st0" d="M1944.3,306.9c-0.6,3-4.3,1.5-6.1-1.2c-1.8-2.7-5.5-4.9,0-3.7C1943.7,303.2,1944.6,305.4,1944.3,306.9z"/>
	<path class="st0" d="M1686.7,207.2c-3.8,0.8,5.5,7.3,6.4,8.3c0.9,0.9,9.2,7.9,9.2,11.3s5.5,11.3,7,12.5s9.2,5.8,10.4,8.3
		c1.2,2.4,4,3.1,4-0.3s0.6-7.3,2.1-9.2c1.5-1.8,0.9-4.6-1.5-4.3c-2.4,0.3-4.6-4-8.6-6.7c-4-2.8-7-4.6-10.7-8.6s-8.3-6.4-10.7-8.6
		C1691.9,207.9,1688.2,206.9,1686.7,207.2z"/>
	<path class="st0" d="M1698.6,191.1c-2.4,0.3-2.4,4.9-1.2,6.4c1.2,1.5,3.7,0.6,5.2,6.1s4.6,11,5.8,13.1c1.2,2.1,6.4,5.2,8.3,6.7
		c1.8,1.5,4.6-0.6,3.4-2.4s-3.7-4.6-4-6.7s-1.8-5.5-4.3-9.2c-2.4-3.7-4.6-4.6-6.1-7C1704.1,195.6,1698.6,191.1,1698.6,191.1z"/>
	<path class="st0" d="M1724.3,248.8c-2.2,2.8,0.6,4.9,1.5,5.5s4.3,1.2,7.3,0.9c3.1-0.3,7.3-1.2,4-3.1c-3.4-1.8-7.3,0-8.6-2.4
		C1727.3,247.3,1725.5,247.3,1724.3,248.8z"/>
	<path class="st0" d="M1742,251.3c-2.1,0.9-5.5,1.5-3.1,3.7c2.4,2.1,4,3.1,7.6,2.8c3.7-0.3,9.2,1.8,9.5,0s-3.4-4.6-4.9-4.6
		C1749.6,253.1,1742,251.3,1742,251.3z"/>
	<path class="st0" d="M1771.9,261.3c-0.7,2.7,4.6,4,4.9,0.9C1777.1,259.2,1772.6,258.9,1771.9,261.3z"/>
	<path class="st0" d="M1788.2,263.5c0.5,3.3,6.7-1.8,6.7-1.8s4.9-0.6,4.9-2.7s-4.9-4.9-6.7-2.4
		C1791.2,258.9,1787.8,261.3,1788.2,263.5z"/>
	<path class="st0" d="M1774.7,229.3c-1.8,0.6-1.5,2.1-2.1,5.2s-3.4,5.2-0.9,6.7s7-5.2,8.3-3.1c1.2,2.1-0.3,3.1,1.8,5.8
		c2.1,2.8,6.1,2.4,6.1,2.4s-0.3-7.3-3.7-9.2c-3.4-1.8-5.5-4-1.5-3.4s6.1-0.9,5.2-2.7c-0.9-1.8-6.7-0.9-8.6-0.6
		C1777.4,230.8,1774.7,229.3,1774.7,229.3z"/>
	<path class="st0" d="M1776.5,223.1c-2.1,2.1-0.6,4.3,2.7,4c3.4-0.3,10.4-1.2,11.9-1.2s3.7-4,2.4-4c-1.2,0-9.8,1.5-10.7,1.8
		C1782,224.1,1776.5,223.1,1776.5,223.1z"/>
	<path class="st0" d="M1807.7,218.9c-2.8-1.2-7.9,10.1-4.3,11C1807.1,230.8,1809.8,219.8,1807.7,218.9z"/>
	<path class="st0" d="M1765.8,202.7c-0.1-2.2-4.9,0.6-5.2,2.7c-0.3,2.1,3.4,4-2.4,4s-6.1,4.6-7.3,5.5c-1.2,0.9-2.5,1.2-4.9,1.8
		c-2.4,0.6-3,3-3.7,4.6c-0.6,1.5-4.9-2.7-6.1-1.5s-0.3,7,1.8,11.9s7.6,7.9,9.2,7.9c1.5,0,4.6,0,6.7,0.6s9.2,1.2,8.9-1.5
		c-0.3-2.7-0.9-7,2.1-9.8c3.1-2.7,6.1-4.3,4.6-8.3s-4.6-6.4-2.4-8.2c2.1-1.8,4.6-2.4,4.6-4C1771.6,206.9,1766.4,212.8,1765.8,202.7z
		"/>
	<path class="st0" d="M1780.8,159.6c-2.1,0,0.3,3.4-2.7,5.5c-3.1,2.1-6.4,3-4.6,6.7s8.3,6.4,6.7,8c-1.5,1.5-6.1,4.6-6.7,7.3
		c-0.6,2.7,7.3-4.3,9.5-7c2.1-2.7,6.4-1.2,7.3-2.7s0.9-1.5,0.9-1.5s-3.4-0.6-6.1-1.5c-2.8-0.9-6.1,2.4-4.6-2.4
		c1.5-4.9,6.1-4,5.2-7.6C1784.8,160.5,1781.7,159.6,1780.8,159.6z"/>
	<path class="st0" d="M1783.6,186.2c-1,0.4-3.7,5.8-0.3,5.8c3.4,0,9.2,0.9,7.9-0.6C1790,189.8,1786.9,184.9,1783.6,186.2z"/>
	<path class="st0" d="M1793.6,181.6c-1.2-0.1-5.2,6.4,0.3,6.1C1799.5,187.4,1797.9,181.9,1793.6,181.6z"/>
	<path class="st0" d="M1794.6,192.9c-4.3,5.5-4,4.3-7,3.1c-3.1-1.2-7.9,2.7-7,4.3c0.9,1.5,7.7-0.3,9.2,2.4c1.5,2.7,1.5,3.1,4.6,2.4
		c3.1-0.6,6.1-4.9,5.2-7C1798.5,195.9,1794.6,192.9,1794.6,192.9z"/>
	<path class="st0" d="M1815.3,229c-2.3,2.3-3.4,2.5,1.8,3.4c5.2,0.9,6.7,0.9,4.6,3.4c-2.1,2.4-3.7,5.5-1.8,5.8
		c1.8,0.3,7.3-1.2,7.9,0s-1.2,1.5,4.9,2.4s7.3,3.1,8.6,4.3c1.2,1.2,4.9,5.2,2.4,5.2c-2.4,0-5.2,3.1-3.4,3.4c1.8,0.3,7.3-0.9,7.6,0
		c0.3,0.9,3.4,6.7,6.4,6.4c3.1-0.3,4.9-5.8,6.4-7.3s7.7-2.4,8.3,0.3c0.6,2.8,2.5,5.5,6.1,7.3c3.7,1.8,7.9,3.7,8.3,2.1
		c0.3-1.5-1.8-7.3-4.3-8.2c-2.4-0.9-6.7-6.1-6.7-8.3c0-2.1-3.7-2.7-5.5-4.3c-1.8-1.5-3.4-5.8-8-6.7c-4.6-0.9-5.8-2.4-10.7-4.9
		c-4.9-2.5-15.9-2.5-16.2-0.9c-0.3,1.5,0,0-3.7-1.2s-6.4,0-7.3-2.1C1820.2,226.8,1818.1,226.2,1815.3,229z"/>
</g>
</svg>
